<svg width="1024" height="253" viewBox="0 0 1024 253" fill="none" xmlns="http://www.w3.org/2000/svg">
<g clip-path="url(#clip0_59_2)">
<mask id="mask0_59_2" style="mask-type:luminance" maskUnits="userSpaceOnUse" x="0" y="0" width="1024" height="351">
<path d="M0.124512 0.78186V350.782H1023.88V0.78186" fill="white"/>
</mask>
<g mask="url(#mask0_59_2)">
<path d="M820.007 125.917C820.007 169.396 855.261 204.635 898.724 204.635C942.202 204.635 977.441 169.396 977.441 125.917C977.441 82.4546 942.202 47.2157 898.724 47.2157C855.261 47.2157 820.007 82.4546 820.007 125.917ZM773.589 125.917C773.589 56.8027 829.609 0.78186 898.724 0.78186C967.839 0.78186 1023.88 56.8027 1023.88 125.917C1023.88 195.048 967.839 251.068 898.724 251.068C829.609 251.068 773.589 195.048 773.589 125.917Z" fill="#CC171E"/>
</g>
<mask id="mask1_59_2" style="mask-type:luminance" maskUnits="userSpaceOnUse" x="0" y="0" width="1024" height="351">
<path d="M0.124512 0.78186V350.782H1023.88V0.78186" fill="white"/>
</mask>
<g mask="url(#mask1_59_2)">
<path d="M86.2692 0.78186C31.2591 0.78186 1.56026 34.4012 1.56026 70.1762C1.56026 89.4113 10.3164 102.329 16.3963 109.42C28.2038 123.249 43.8515 130.282 58.0329 136.699L73.3475 142.921C89.8872 149.674 110.198 158.071 110.198 181.686C110.198 197.873 97.6709 218.058 64.2544 218.058C41.3131 218.058 19.0074 209.355 0.124512 196.522V237.68C28.1196 248.813 52.3971 251.08 67.6045 251.08C123.61 251.08 157.099 218.506 157.099 178.336C157.099 161.811 151.127 148.219 143.699 139.092C132.902 125.247 117.312 118.214 103.498 111.813L86.7477 104.634C69.1819 97.5434 47.5041 87.9411 47.5041 66.3475C47.5041 51.4924 58.7718 33.3254 89.1407 33.3254C118.82 33.3254 137.37 47.3612 145.135 53.4258V13.225C137.37 9.85576 116.316 0.78186 86.2692 0.78186ZM475.834 0.78186C390.563 0.78186 337.524 57.2774 337.524 127.127C337.524 200.699 390.39 251.08 469.613 251.08C501.636 251.08 533.203 243.105 561.979 228.587L563.893 120.906H479.663L460.041 153.449H520.821L519.864 208.008C512.773 211.714 498.868 219.015 473.92 219.015C418.971 219.015 383.947 177.953 383.947 126.649C383.947 72.3279 423.757 34.2826 478.706 34.2826C512.75 34.2826 537.204 48.1078 549.057 54.8616V13.7036C524.661 5.60213 501.456 0.78186 475.834 0.78186ZM182.464 7.00342V244.858H317.903L337.524 210.879H226.494V137.656H308.81V104.155H226.494V40.5041H322.21V7.00342H182.464ZM594.044 7.00342V244.858H638.074V142.921C658.319 142.921 660.617 142.848 674.446 141.485L737.618 244.858H786.912L717.518 131.913C727.978 125.849 755.326 110.224 755.326 72.0905C755.326 47.4493 741.665 18.6502 705.554 9.87491C694.083 7.17954 682.85 7.00342 672.053 7.00342H594.044ZM638.074 39.0684H667.746C690.35 39.0684 710.339 48.4945 710.339 74.4834C710.339 91.6817 700.488 106.797 679.232 110.856C671.452 112.203 662.895 113.248 656.738 113.248H638.074V39.0684Z" fill="white"/>
</g>
</g>
<defs>
<clipPath id="clip0_59_2">
<rect width="1024" height="253" fill="white"/>
</clipPath>
</defs>
</svg>
